# 3ds Max Wavefront OBJ Exporter v0.94b - (c)2007 guruware
# File Created: 21.08.2010 16:21:57

#
# object Polygon
#

v  -1136.4677 0.0000 -1111.9045
v  -873.8575 0.0000 -948.0449
v  -615.7753 0.0000 -1340.1376
v  -276.1933 0.0000 -1199.6865
v  -153.9438 0.0000 -971.4534
v  -13.5833 0.0000 -678.8470
v  199.2214 0.0000 -678.8470
v  502.5813 0.0000 -877.8193
v  964.4128 0.0000 -912.9321
v  1294.9392 0.0000 -356.9799
v  1000.6348 0.0000 175.5639
v  1267.7727 0.0000 497.4309
v  1263.2449 0.0000 983.1577
v  982.5239 0.0000 1240.6514
v  401.3242 0.0000 1542.8342
v  -216.0976 0.0000 1436.4319
v  -591.6959 0.0000 1476.3326
v  -915.8423 0.0000 1655.8866
v  -1157.6658 0.0000 1529.5338
v  -1378.9086 0.0000 1290.1285
v  -1595.0061 0.0000 1443.0819
v  -1800.8135 0.0000 1290.1285
v  -1991.1851 0.0000 711.5657
v  -2042.6370 0.0000 73.1516
v  -1852.2708 0.0000 -272.6564
v  -1574.4370 0.0000 -399.0096
v  -1584.7158 0.0000 -691.6153
v  -1790.5232 0.0000 -1110.5746
v  -1420.0701 0.0000 -1276.8282
v  -1136.4677 516.0000 -1111.9045
v  -873.8575 516.0000 -948.0449
v  -615.7753 516.0000 -1340.1376
v  -276.1933 516.0000 -1199.6865
v  -153.9438 516.0000 -971.4534
v  -13.5833 516.0000 -678.8470
v  199.2214 516.0000 -678.8470
v  502.5813 516.0000 -877.8193
v  964.4128 516.0000 -912.9321
v  1294.9392 516.0000 -356.9799
v  1000.6348 516.0000 175.5639
v  1267.7727 516.0000 497.4309
v  1263.2449 516.0000 983.1577
v  982.5239 516.0000 1240.6514
v  401.3242 516.0000 1542.8342
v  -216.0976 516.0000 1436.4319
v  -591.6959 516.0000 1476.3326
v  -915.8423 516.0000 1655.8866
v  -1157.6658 516.0000 1529.5338
v  -1378.9086 516.0000 1290.1285
v  -1595.0061 516.0000 1443.0819
v  -1800.8135 516.0000 1290.1285
v  -1991.1851 516.0000 711.5657
v  -2042.6370 516.0000 73.1516
v  -1852.2708 516.0000 -272.6564
v  -1574.4370 516.0000 -399.0096
v  -1584.7158 516.0000 -691.6153
v  -1790.5232 516.0000 -1110.5746
v  -1420.0701 516.0000 -1276.8282
v  -1088.0414 228.9595 -1031.2737
v  -842.1071 228.9595 -877.8191
v  -600.4130 228.9595 -1245.0139
v  -282.3945 228.9595 -1113.4813
v  -167.9078 228.9595 -899.7411
v  -36.4601 228.9595 -625.7151
v  162.8314 228.9595 -625.7151
v  446.9280 228.9595 -812.0528
v  879.4330 228.9595 -844.9359
v  1188.9712 228.9595 -324.2866
v  913.3552 228.9595 174.4406
v  1163.5298 228.9595 475.8691
v  1159.2896 228.9595 930.7522
v  896.3942 228.9595 1171.8949
v  352.1006 228.9595 1454.8893
v  -226.1148 228.9595 1355.2435
v  -577.8625 228.9595 1392.6106
v  -881.4258 228.9595 1560.7629
v  -1107.8934 228.9595 1442.4335
v  -1315.0873 228.9595 1218.2305
v  -1517.4626 228.9595 1361.4713
v  -1710.2012 228.9595 1218.2305
v  -1888.4844 228.9595 676.4064
v  -1936.6689 228.9595 78.5315
v  -1758.3909 228.9595 -245.3177
v  -1498.1997 228.9595 -363.6475
v  -1507.8259 228.9595 -637.6727
v  -1700.5642 228.9595 -1030.0281
v  -1353.6350 228.9595 -1185.7246
# 87 vertices

vn 0.0000 1.0000 -0.0000
vn 0.0000 1.0000 -0.0000
vn 0.0000 1.0000 -0.0000
vn 0.0000 1.0000 -0.0000
vn 0.0000 1.0000 -0.0000
vn 0.0000 1.0000 -0.0000
vn 0.0000 1.0000 -0.0000
vn 0.0000 1.0000 -0.0000
vn 0.0000 1.0000 -0.0000
vn 0.0000 1.0000 -0.0000
vn 0.0000 1.0000 -0.0000
vn 0.0000 1.0000 -0.0000
vn 0.0000 1.0000 -0.0000
vn 0.0000 1.0000 -0.0000
vn 0.0000 1.0000 -0.0000
vn -0.0073 -0.3040 -0.9526
vn 0.5077 -0.1525 -0.8479
vn 0.5186 0.0187 -0.8548
vn 0.0000 1.0000 -0.0000
vn 0.0000 1.0000 -0.0000
vn 0.0000 1.0000 -0.0000
vn 0.0000 1.0000 -0.0000
vn 0.0000 1.0000 -0.0000
vn 0.0000 1.0000 -0.0000
vn 0.0000 1.0000 -0.0000
vn 0.0000 1.0000 -0.0000
vn 0.0000 1.0000 -0.0000
vn 0.0000 1.0000 -0.0000
vn 0.0000 1.0000 -0.0000
vn 0.0000 1.0000 -0.0000
vn 0.0000 1.0000 -0.0000
vn 0.0000 1.0000 -0.0000
vn 0.0000 1.0000 -0.0000
vn 0.0000 1.0000 -0.0000
vn 0.0000 1.0000 -0.0000
vn 0.0000 1.0000 -0.0000
vn 0.0000 1.0000 -0.0000
vn 0.0000 1.0000 -0.0000
vn 0.0000 1.0000 -0.0000
vn 0.0000 1.0000 -0.0000
vn 0.0000 1.0000 -0.0000
vn 0.0000 1.0000 -0.0000
vn 0.0000 1.0000 -0.0000
vn 0.0000 1.0000 -0.0000
vn 0.0000 1.0000 -0.0000
vn 0.0000 1.0000 -0.0000
vn 0.0000 1.0000 -0.0000
vn 0.0000 1.0000 -0.0000
vn -0.3822 -0.3587 -0.8516
vn -0.0073 -0.3040 -0.9526
vn 0.1385 0.0330 -0.9898
vn -0.9772 0.0265 0.2106
vn -0.8973 0.0229 0.4408
vn -0.8805 0.1938 0.4325
vn -0.8558 0.0302 -0.5165
vn -0.9772 0.0265 0.2106
vn -0.9293 0.2476 0.2739
vn -0.6487 0.0341 -0.7603
vn -0.8558 0.0302 -0.5165
vn -0.7901 0.3417 -0.5089
vn -0.9742 0.0425 -0.2219
vn -0.6487 0.0341 -0.7603
vn -0.6615 0.3504 -0.6631
vn -0.9802 0.0415 0.1937
vn -0.9742 0.0425 -0.2219
vn -0.8909 0.4166 -0.1809
vn -0.7508 -0.3735 0.5448
vn -0.9172 -0.3512 0.1883
vn -0.9802 0.0415 0.1937
vn 0.1119 0.0285 0.9933
vn -0.8126 0.0461 0.5809
vn -0.7222 0.4506 0.5247
vn 0.5761 -0.0758 0.8139
vn -0.0886 -0.2945 0.9515
vn 0.1119 0.0285 0.9933
vn -0.6117 0.0396 0.7901
vn -0.7339 0.0362 0.6783
vn -0.6776 0.3855 0.6262
vn 0.0585 0.0399 0.9975
vn -0.6117 0.0396 0.7901
vn -0.5533 0.3985 0.7314
vn 0.2845 0.0301 0.9582
vn 0.0585 0.0399 0.9975
vn -0.0227 0.3865 0.9220
vn -0.0284 0.0316 0.9991
vn 0.2845 0.0301 0.9582
vn 0.3053 0.3107 0.9001
vn 0.1661 -0.3148 0.9345
vn -0.0349 -0.2709 0.9620
vn -0.0284 0.0316 0.9991
vn 0.5650 0.0410 0.8240
vn 0.1249 0.0388 0.9914
vn 0.1654 0.3844 0.9082
vn 0.9149 0.0478 0.4009
vn 0.5650 0.0410 0.8240
vn 0.5277 0.4202 0.7382
vn 0.9239 0.0364 -0.3809
vn 0.9149 0.0478 0.4009
vn 0.8127 0.4529 0.3665
vn 0.9960 0.0310 -0.0832
vn 0.9239 0.0364 -0.3809
vn 0.8851 0.3773 -0.2724
vn 0.9986 0.0448 0.0273
vn 0.9960 0.0310 -0.0832
vn 0.9296 0.3538 -0.1033
vn 0.4693 -0.3327 -0.8180
vn 0.9358 -0.3501 -0.0405
vn 0.9986 0.0448 0.0273
vn -0.2822 -0.1619 -0.9456
vn 0.4693 -0.3327 -0.8180
vn 0.4021 0.0412 -0.9147
vn -0.3142 -0.1341 -0.9398
vn -0.2822 -0.1619 -0.9456
vn -0.3654 0.0166 -0.9307
vn 0.5237 0.0225 -0.8516
vn -0.2540 0.0182 -0.9670
vn -0.3203 0.1656 -0.9328
vn 0.8930 0.0191 -0.4496
vn 0.5237 0.0225 -0.8516
vn 0.5288 0.2416 -0.8136
vn 0.7044 0.0276 -0.7092
vn 0.8930 0.0191 -0.4496
vn 0.8735 0.1932 -0.4469
vn -0.3174 0.0433 -0.9473
vn 0.7044 0.0276 -0.7092
vn 0.6103 0.2935 -0.7358
vn -0.8146 -0.2213 -0.5362
vn -0.2652 -0.3161 -0.9109
vn -0.3174 0.0433 -0.9473
vn 0.5186 0.0187 -0.8548
vn 0.5293 0.0151 -0.8483
vn 0.5204 0.1836 -0.8340
vn 0.5038 0.1902 -0.8426
vn -0.0173 0.3740 -0.9273
vn 0.1385 0.0330 -0.9898
vn -0.0173 0.3740 -0.9273
vn -0.3689 0.4341 -0.8219
vn -0.4090 0.0450 -0.9114
vn -0.9417 -0.2016 0.2695
vn -0.8866 -0.1557 0.4355
vn -0.8973 0.0229 0.4408
vn -0.8094 -0.2787 -0.5169
vn -0.9417 -0.2016 0.2695
vn -0.9772 0.0265 0.2106
vn -0.6728 -0.2851 -0.6827
vn -0.8094 -0.2787 -0.5169
vn -0.8558 0.0302 -0.5165
vn -0.9201 -0.3432 -0.1885
vn -0.6728 -0.2851 -0.6827
vn -0.6487 0.0341 -0.7603
vn -0.9172 -0.3512 0.1883
vn -0.9201 -0.3432 -0.1885
vn -0.9742 0.0425 -0.2219
vn -0.8863 0.4256 0.1826
vn -0.7222 0.4506 0.5247
vn -0.8126 0.0461 0.5809
vn -0.0886 -0.2945 0.9515
vn -0.7508 -0.3735 0.5448
vn -0.8126 0.0461 0.5809
vn -0.0998 0.3639 0.9261
vn 0.5751 0.0948 0.8126
vn 0.5777 0.0070 0.8162
vn -0.5708 -0.3275 0.7530
vn -0.6967 -0.3162 0.6439
vn -0.7339 0.0362 0.6783
vn -0.0179 -0.3165 0.9484
vn -0.5708 -0.3275 0.7530
vn -0.6117 0.0396 0.7901
vn 0.3070 -0.2528 0.9175
vn -0.0179 -0.3165 0.9484
vn 0.0585 0.0399 0.9975
vn -0.0349 -0.2709 0.9620
vn 0.3070 -0.2528 0.9175
vn 0.2845 0.0301 0.9582
vn -0.0351 0.3326 0.9424
vn 0.1654 0.3844 0.9082
vn 0.1249 0.0388 0.9914
vn 0.5443 -0.3463 0.7641
vn 0.1661 -0.3148 0.9345
vn 0.1249 0.0388 0.9914
vn 0.8451 -0.3755 0.3804
vn 0.5443 -0.3463 0.7641
vn 0.5650 0.0410 0.8240
vn 0.9073 -0.3080 -0.2862
vn 0.8451 -0.3755 0.3804
vn 0.9149 0.0478 0.4009
vn 0.9518 -0.2890 -0.1023
vn 0.9073 -0.3080 -0.2862
vn 0.9239 0.0364 -0.3809
vn 0.9358 -0.3501 -0.0405
vn 0.9518 -0.2890 -0.1023
vn 0.9960 0.0310 -0.0832
vn 0.9043 0.4247 -0.0436
vn 0.4607 0.4055 -0.7895
vn 0.4021 0.0412 -0.9147
vn 0.4607 0.4055 -0.7895
vn -0.2720 0.2040 -0.9404
vn -0.3654 0.0166 -0.9307
vn -0.2720 0.2040 -0.9404
vn -0.3203 0.1656 -0.9328
vn -0.2540 0.0182 -0.9670
vn 0.5320 -0.1949 -0.8240
vn -0.3142 -0.1341 -0.9398
vn -0.2540 0.0182 -0.9670
vn 0.8798 -0.1551 -0.4494
vn 0.5320 -0.1949 -0.8240
vn 0.5237 0.0225 -0.8516
vn 0.6259 -0.2367 -0.7431
vn 0.8798 -0.1551 -0.4494
vn 0.8930 0.0191 -0.4496
vn -0.2652 -0.3161 -0.9109
vn 0.6259 -0.2367 -0.7431
vn 0.7044 0.0276 -0.7092
vn -0.2555 0.3855 -0.8866
vn -0.8034 0.2736 -0.5288
vn -0.8351 0.0241 -0.5496
vn 0.5077 -0.1525 -0.8479
vn 0.5236 -0.1474 -0.8391
vn 0.5293 0.0151 -0.8483
vn 0.0000 1.0000 -0.0000
vn 0.0000 1.0000 -0.0000
vn 0.0000 1.0000 -0.0000
vn 0.0000 1.0000 -0.0000
vn 0.0000 1.0000 -0.0000
vn 0.0000 1.0000 -0.0000
vn 0.0000 1.0000 -0.0000
vn 0.0000 1.0000 -0.0000
vn 0.0000 1.0000 -0.0000
vn 0.0000 1.0000 -0.0000
vn 0.0000 1.0000 -0.0000
vn 0.0000 1.0000 -0.0000
vn 0.1385 0.0330 -0.9898
vn -0.0073 -0.3040 -0.9526
vn 0.5186 0.0187 -0.8548
vn 0.0000 1.0000 -0.0000
vn 0.0000 1.0000 -0.0000
vn 0.0000 1.0000 -0.0000
vn 0.0000 1.0000 -0.0000
vn 0.0000 1.0000 -0.0000
vn 0.0000 1.0000 -0.0000
vn 0.0000 1.0000 -0.0000
vn 0.0000 1.0000 -0.0000
vn 0.0000 1.0000 -0.0000
vn 0.0000 1.0000 -0.0000
vn 0.0000 1.0000 -0.0000
vn 0.0000 1.0000 -0.0000
vn 0.0000 1.0000 -0.0000
vn 0.0000 1.0000 -0.0000
vn 0.0000 1.0000 -0.0000
vn 0.0000 1.0000 -0.0000
vn 0.0000 1.0000 -0.0000
vn 0.0000 1.0000 -0.0000
vn 0.0000 1.0000 -0.0000
vn 0.0000 1.0000 -0.0000
vn 0.0000 1.0000 -0.0000
vn 0.0000 1.0000 -0.0000
vn 0.0000 1.0000 -0.0000
vn 0.0000 1.0000 -0.0000
vn -0.4090 0.0450 -0.9114
vn -0.3822 -0.3587 -0.8516
vn 0.1385 0.0330 -0.9898
vn -0.9293 0.2476 0.2739
vn -0.9772 0.0265 0.2106
vn -0.8805 0.1938 0.4325
vn -0.7901 0.3417 -0.5089
vn -0.8558 0.0302 -0.5165
vn -0.9293 0.2476 0.2739
vn -0.6615 0.3504 -0.6631
vn -0.6487 0.0341 -0.7603
vn -0.7901 0.3417 -0.5089
vn -0.8909 0.4166 -0.1809
vn -0.9742 0.0425 -0.2219
vn -0.6615 0.3504 -0.6631
vn -0.8863 0.4256 0.1826
vn -0.9802 0.0415 0.1937
vn -0.8909 0.4166 -0.1809
vn -0.8126 0.0461 0.5809
vn -0.7508 -0.3735 0.5448
vn -0.9802 0.0415 0.1937
vn -0.0998 0.3639 0.9261
vn 0.1119 0.0285 0.9933
vn -0.7222 0.4506 0.5247
vn 0.5777 0.0070 0.8162
vn 0.5761 -0.0758 0.8139
vn 0.1119 0.0285 0.9933
vn -0.5533 0.3985 0.7314
vn -0.6117 0.0396 0.7901
vn -0.6776 0.3855 0.6262
vn -0.0227 0.3865 0.9220
vn 0.0585 0.0399 0.9975
vn -0.5533 0.3985 0.7314
vn 0.3053 0.3107 0.9001
vn 0.2845 0.0301 0.9582
vn -0.0227 0.3865 0.9220
vn -0.0351 0.3326 0.9424
vn -0.0284 0.0316 0.9991
vn 0.3053 0.3107 0.9001
vn 0.1249 0.0388 0.9914
vn 0.1661 -0.3148 0.9345
vn -0.0284 0.0316 0.9991
vn 0.5277 0.4202 0.7382
vn 0.5650 0.0410 0.8240
vn 0.1654 0.3844 0.9082
vn 0.8127 0.4529 0.3665
vn 0.9149 0.0478 0.4009
vn 0.5277 0.4202 0.7382
vn 0.8851 0.3773 -0.2724
vn 0.9239 0.0364 -0.3809
vn 0.8127 0.4529 0.3665
vn 0.9296 0.3538 -0.1033
vn 0.9960 0.0310 -0.0832
vn 0.8851 0.3773 -0.2724
vn 0.9043 0.4247 -0.0436
vn 0.9986 0.0448 0.0273
vn 0.9296 0.3538 -0.1033
vn 0.4021 0.0412 -0.9147
vn 0.4693 -0.3327 -0.8180
vn 0.9986 0.0448 0.0273
vn -0.3654 0.0166 -0.9307
vn -0.2822 -0.1619 -0.9456
vn 0.4021 0.0412 -0.9147
vn -0.2540 0.0182 -0.9670
vn -0.3142 -0.1341 -0.9398
vn -0.3654 0.0166 -0.9307
vn 0.5288 0.2416 -0.8136
vn 0.5237 0.0225 -0.8516
vn -0.3203 0.1656 -0.9328
vn 0.8735 0.1932 -0.4469
vn 0.8930 0.0191 -0.4496
vn 0.5288 0.2416 -0.8136
vn 0.6103 0.2935 -0.7358
vn 0.7044 0.0276 -0.7092
vn 0.8735 0.1932 -0.4469
vn -0.2555 0.3855 -0.8866
vn -0.3174 0.0433 -0.9473
vn 0.6103 0.2935 -0.7358
vn -0.8351 0.0241 -0.5496
vn -0.8146 -0.2213 -0.5362
vn -0.3174 0.0433 -0.9473
vn 0.5038 0.1902 -0.8426
vn 0.5186 0.0187 -0.8548
vn 0.5204 0.1836 -0.8340
vn 0.5186 0.0187 -0.8548
vn 0.5038 0.1902 -0.8426
vn 0.1385 0.0330 -0.9898
vn 0.1385 0.0330 -0.9898
vn -0.0173 0.3740 -0.9273
vn -0.4090 0.0450 -0.9114
vn -0.9772 0.0265 0.2106
vn -0.9417 -0.2016 0.2695
vn -0.8973 0.0229 0.4408
vn -0.8558 0.0302 -0.5165
vn -0.8094 -0.2787 -0.5169
vn -0.9772 0.0265 0.2106
vn -0.6487 0.0341 -0.7603
vn -0.6728 -0.2851 -0.6827
vn -0.8558 0.0302 -0.5165
vn -0.9742 0.0425 -0.2219
vn -0.9201 -0.3432 -0.1885
vn -0.6487 0.0341 -0.7603
vn -0.9802 0.0415 0.1937
vn -0.9172 -0.3512 0.1883
vn -0.9742 0.0425 -0.2219
vn -0.9802 0.0415 0.1937
vn -0.8863 0.4256 0.1826
vn -0.8126 0.0461 0.5809
vn 0.1119 0.0285 0.9933
vn -0.0886 -0.2945 0.9515
vn -0.8126 0.0461 0.5809
vn 0.1119 0.0285 0.9933
vn -0.0998 0.3639 0.9261
vn 0.5777 0.0070 0.8162
vn -0.6117 0.0396 0.7901
vn -0.5708 -0.3275 0.7530
vn -0.7339 0.0362 0.6783
vn 0.0585 0.0399 0.9975
vn -0.0179 -0.3165 0.9484
vn -0.6117 0.0396 0.7901
vn 0.2845 0.0301 0.9582
vn 0.3070 -0.2528 0.9175
vn 0.0585 0.0399 0.9975
vn -0.0284 0.0316 0.9991
vn -0.0349 -0.2709 0.9620
vn 0.2845 0.0301 0.9582
vn -0.0284 0.0316 0.9991
vn -0.0351 0.3326 0.9424
vn 0.1249 0.0388 0.9914
vn 0.5650 0.0410 0.8240
vn 0.5443 -0.3463 0.7641
vn 0.1249 0.0388 0.9914
vn 0.9149 0.0478 0.4009
vn 0.8451 -0.3755 0.3804
vn 0.5650 0.0410 0.8240
vn 0.9239 0.0364 -0.3809
vn 0.9073 -0.3080 -0.2862
vn 0.9149 0.0478 0.4009
vn 0.9960 0.0310 -0.0832
vn 0.9518 -0.2890 -0.1023
vn 0.9239 0.0364 -0.3809
vn 0.9986 0.0448 0.0273
vn 0.9358 -0.3501 -0.0405
vn 0.9960 0.0310 -0.0832
vn 0.9986 0.0448 0.0273
vn 0.9043 0.4247 -0.0436
vn 0.4021 0.0412 -0.9147
vn 0.4021 0.0412 -0.9147
vn 0.4607 0.4055 -0.7895
vn -0.3654 0.0166 -0.9307
vn -0.3654 0.0166 -0.9307
vn -0.2720 0.2040 -0.9404
vn -0.2540 0.0182 -0.9670
vn 0.5237 0.0225 -0.8516
vn 0.5320 -0.1949 -0.8240
vn -0.2540 0.0182 -0.9670
vn 0.8930 0.0191 -0.4496
vn 0.8798 -0.1551 -0.4494
vn 0.5237 0.0225 -0.8516
vn 0.7044 0.0276 -0.7092
vn 0.6259 -0.2367 -0.7431
vn 0.8930 0.0191 -0.4496
vn -0.3174 0.0433 -0.9473
vn -0.2652 -0.3161 -0.9109
vn 0.7044 0.0276 -0.7092
vn -0.3174 0.0433 -0.9473
vn -0.2555 0.3855 -0.8866
vn -0.8351 0.0241 -0.5496
vn 0.5186 0.0187 -0.8548
vn 0.5077 -0.1525 -0.8479
vn 0.5293 0.0151 -0.8483
# 429 vertex normals

g Polygon
f 41//1 40//2 43//3 
f 46//4 35//5 31//6 
f 56//7 30//8 58//9 
f 46//10 45//11 35//12 
f 49//13 46//14 55//15 
f 58//16 30//17 59//18 
f 37//19 36//20 40//21 
f 49//22 52//23 51//24 
f 40//25 39//26 38//27 
f 31//28 30//29 56//30 
f 48//31 47//32 46//33 
f 44//34 43//35 40//36 
f 36//37 35//38 45//39 
f 53//40 52//41 55//42 
f 33//43 32//44 31//45 
f 35//46 34//47 31//48 
f 57//49 58//50 87//51 
f 85//52 86//53 28//54 
f 84//55 85//56 27//57 
f 83//58 84//59 26//60 
f 82//61 83//62 25//63 
f 81//64 82//65 24//66 
f 51//67 52//68 81//69 
f 79//70 80//71 22//72 
f 49//73 50//74 79//75 
f 77//76 78//77 20//78 
f 76//79 77//80 19//81 
f 75//82 76//83 18//84 
f 74//85 75//86 17//87 
f 44//88 45//89 74//90 
f 72//91 73//92 15//93 
f 71//94 72//95 14//96 
f 70//97 71//98 13//99 
f 69//100 70//101 12//102 
f 68//103 69//104 11//105 
f 38//106 39//107 68//108 
f 37//109 38//110 67//111 
f 36//112 37//113 66//114 
f 64//115 65//116 7//117 
f 63//118 64//119 6//120 
f 62//121 63//122 5//123 
f 61//124 62//125 4//126 
f 31//127 32//128 61//129 
f 59//130 60//131 2//132 
f 1//133 29//134 87//135 
f 29//136 28//137 86//138 
f 56//139 57//140 86//141 
f 55//142 56//143 85//144 
f 54//145 55//146 84//147 
f 53//148 54//149 83//150 
f 52//151 53//152 82//153 
f 23//154 22//155 80//156 
f 50//157 51//158 80//159 
f 21//160 20//161 78//162 
f 48//163 49//164 78//165 
f 47//166 48//167 77//168 
f 46//169 47//170 76//171 
f 45//172 46//173 75//174 
f 16//175 15//176 73//177 
f 43//178 44//179 73//180 
f 42//181 43//182 72//183 
f 41//184 42//185 71//186 
f 40//187 41//188 70//189 
f 39//190 40//191 69//192 
f 10//193 9//194 67//195 
f 9//196 8//197 66//198 
f 8//199 7//200 65//201 
f 35//202 36//203 65//204 
f 34//205 35//206 64//207 
f 33//208 34//209 63//210 
f 32//211 33//212 62//213 
f 3//214 2//215 60//216 
f 30//217 31//218 60//219 
f 42//220 41//221 43//222 
f 55//223 46//224 31//225 
f 57//226 56//227 58//228 
f 52//229 49//230 55//231 
f 87//232 58//233 59//234 
f 38//235 37//236 40//237 
f 50//238 49//239 51//240 
f 55//241 31//242 56//243 
f 49//244 48//245 46//246 
f 45//247 44//248 40//249 
f 40//250 36//251 45//252 
f 54//253 53//254 55//255 
f 34//256 33//257 31//258 
f 86//259 57//260 87//261 
f 27//262 85//263 28//264 
f 26//265 84//266 27//267 
f 25//268 83//269 26//270 
f 24//271 82//272 25//273 
f 23//274 81//275 24//276 
f 80//277 51//278 81//279 
f 21//280 79//281 22//282 
f 78//283 49//284 79//285 
f 19//286 77//287 20//288 
f 18//289 76//290 19//291 
f 17//292 75//293 18//294 
f 16//295 74//296 17//297 
f 73//298 44//299 74//300 
f 14//301 72//302 15//303 
f 13//304 71//305 14//306 
f 12//307 70//308 13//309 
f 11//310 69//311 12//312 
f 10//313 68//314 11//315 
f 67//316 38//317 68//318 
f 66//319 37//320 67//321 
f 65//322 36//323 66//324 
f 6//325 64//326 7//327 
f 5//328 63//329 6//330 
f 4//331 62//332 5//333 
f 3//334 61//335 4//336 
f 60//337 31//338 61//339 
f 1//340 59//341 2//342 
f 59//343 1//344 87//345 
f 87//346 29//347 86//348 
f 85//349 56//350 86//351 
f 84//352 55//353 85//354 
f 83//355 54//356 84//357 
f 82//358 53//359 83//360 
f 81//361 52//362 82//363 
f 81//364 23//365 80//366 
f 79//367 50//368 80//369 
f 79//370 21//371 78//372 
f 77//373 48//374 78//375 
f 76//376 47//377 77//378 
f 75//379 46//380 76//381 
f 74//382 45//383 75//384 
f 74//385 16//386 73//387 
f 72//388 43//389 73//390 
f 71//391 42//392 72//393 
f 70//394 41//395 71//396 
f 69//397 40//398 70//399 
f 68//400 39//401 69//402 
f 68//403 10//404 67//405 
f 67//406 9//407 66//408 
f 66//409 8//410 65//411 
f 64//412 35//413 65//414 
f 63//415 34//416 64//417 
f 62//418 33//419 63//420 
f 61//421 32//422 62//423 
f 61//424 3//425 60//426 
f 59//427 30//428 60//429 
# 143 faces

